<svg width="942" height="574" viewBox="0 0 942 574" fill="none" xmlns="http://www.w3.org/2000/svg">
<g id="Frame 1">
<rect width="942" height="574" fill="white"/>
<g id="Vector 1" filter="url(#filter0_d)">
<path d="M303.279 245.043C266.445 285.779 400.641 285.779 472.343 280.687C506.156 278.46 587.882 269.612 644.284 252.045C714.787 230.085 598.961 212.9 506.156 168.981C413.35 125.062 349.322 194.123 303.279 245.043Z" fill="#7B0000"/>
<path d="M303.279 245.043C266.445 285.779 400.641 285.779 472.343 280.687C506.156 278.46 587.882 269.612 644.284 252.045C714.787 230.085 598.961 212.9 506.156 168.981C413.35 125.062 349.322 194.123 303.279 245.043Z" stroke="url(#paint0_linear)" stroke-width="23"/>
</g>
<g id="eye">
<circle id="Ellipse 1" cx="445.5" cy="219.5" r="41.5" stroke="url(#paint1_linear)" stroke-width="6"/>
<line id="Line 1" x1="445.5" y1="178" x2="445.5" y2="219" stroke="black"/>
<line id="Line 4" x1="445.5" y1="219" x2="445.5" y2="260" stroke="black"/>
<line id="Line 2" x1="445" y1="218.5" x2="487" y2="218.5" stroke="black"/>
<line id="Line 3" x1="403" y1="218.5" x2="445" y2="218.5" stroke="black"/>
</g>
</g>
<defs>
<filter id="filter0_d" x="281.499" y="143.499" width="400.002" height="159.001" filterUnits="userSpaceOnUse" color-interpolation-filters="sRGB">
<feFlood flood-opacity="0" result="BackgroundImageFix"/>
<feColorMatrix in="SourceAlpha" type="matrix" values="0 0 0 0 0 0 0 0 0 0 0 0 0 0 0 0 0 0 127 0"/>
<feOffset dy="4"/>
<feGaussianBlur stdDeviation="2"/>
<feColorMatrix type="matrix" values="0 0 0 0 0 0 0 0 0 0 0 0 0 0 0 0 0 0 0.25 0"/>
<feBlend mode="normal" in2="BackgroundImageFix" result="effect1_dropShadow"/>
<feBlend mode="normal" in="SourceGraphic" in2="effect1_dropShadow" result="shape"/>
</filter>
<linearGradient id="paint0_linear" x1="488.366" y1="272.816" x2="478.155" y2="164.332" gradientUnits="userSpaceOnUse">
<stop/>
<stop offset="1" stop-color="#A31818"/>
</linearGradient>
<linearGradient id="paint1_linear" x1="445.5" y1="175" x2="445.5" y2="264" gradientUnits="userSpaceOnUse">
<stop/>
<stop offset="1" stop-color="#3900DA"/>
</linearGradient>
</defs>
</svg>
